<mxfile host="app.diagrams.net" modified="2024-04-22T19:00:04.983Z" agent="Mozilla/5.0 (Macintosh; Intel Mac OS X 10_15_7) AppleWebKit/537.36 (KHTML, like Gecko) Chrome/120.0.0.0 Whale/3.24.223.18 Safari/537.36" etag="i1xYpSDyC-4KAtaZTf7q" version="24.2.5" type="github">
  <diagram name="페이지-1" id="xiopHtyxnY5Z53Ou9KPh">
    <mxGraphModel dx="1147" dy="739" grid="1" gridSize="10" guides="1" tooltips="1" connect="1" arrows="1" fold="1" page="1" pageScale="1" pageWidth="1169" pageHeight="827" math="0" shadow="0">
      <root>
        <mxCell id="0" />
        <mxCell id="1" parent="0" />
        <mxCell id="8wWw_ErhTWO8_n84LaZL-4" value="" style="rounded=0;whiteSpace=wrap;html=1;fillColor=#fff2cc;strokeColor=#d6b656;" vertex="1" parent="1">
          <mxGeometry x="340" y="200" width="320" height="130" as="geometry" />
        </mxCell>
        <mxCell id="-ZXEPCig3IQjcJ_zND1S-1" value="" style="rounded=0;whiteSpace=wrap;html=1;fillColor=#dae8fc;strokeColor=#6c8ebf;" parent="1" vertex="1">
          <mxGeometry x="150" y="216" width="120" height="70" as="geometry" />
        </mxCell>
        <mxCell id="8wWw_ErhTWO8_n84LaZL-14" style="rounded=0;orthogonalLoop=1;jettySize=auto;html=1;exitX=0.75;exitY=1;exitDx=0;exitDy=0;entryX=0.5;entryY=0;entryDx=0;entryDy=0;" edge="1" parent="1" source="-ZXEPCig3IQjcJ_zND1S-3" target="8wWw_ErhTWO8_n84LaZL-6">
          <mxGeometry relative="1" as="geometry" />
        </mxCell>
        <mxCell id="-ZXEPCig3IQjcJ_zND1S-3" value="Schema Registry" style="rounded=1;whiteSpace=wrap;html=1;fillColor=#d5e8d4;strokeColor=#82b366;" parent="1" vertex="1">
          <mxGeometry x="440" y="75" width="120" height="60" as="geometry" />
        </mxCell>
        <mxCell id="-ZXEPCig3IQjcJ_zND1S-9" value="send-event topic" style="rounded=1;whiteSpace=wrap;html=1;" parent="1" vertex="1">
          <mxGeometry x="165" y="246" width="90" height="30" as="geometry" />
        </mxCell>
        <mxCell id="-ZXEPCig3IQjcJ_zND1S-10" value="Kafka" style="text;html=1;align=center;verticalAlign=middle;whiteSpace=wrap;rounded=0;" parent="1" vertex="1">
          <mxGeometry x="180" y="216" width="60" height="30" as="geometry" />
        </mxCell>
        <mxCell id="8wWw_ErhTWO8_n84LaZL-1" value="" style="rounded=0;whiteSpace=wrap;html=1;fillColor=#dae8fc;strokeColor=#6c8ebf;" vertex="1" parent="1">
          <mxGeometry x="730" y="220" width="120" height="70" as="geometry" />
        </mxCell>
        <mxCell id="8wWw_ErhTWO8_n84LaZL-2" value="my-event&amp;nbsp;&lt;div&gt;topic&lt;/div&gt;" style="rounded=1;whiteSpace=wrap;html=1;" vertex="1" parent="1">
          <mxGeometry x="745" y="250" width="90" height="30" as="geometry" />
        </mxCell>
        <mxCell id="8wWw_ErhTWO8_n84LaZL-3" value="Kafka" style="text;html=1;align=center;verticalAlign=middle;whiteSpace=wrap;rounded=0;" vertex="1" parent="1">
          <mxGeometry x="760" y="220" width="60" height="30" as="geometry" />
        </mxCell>
        <mxCell id="8wWw_ErhTWO8_n84LaZL-11" style="edgeStyle=orthogonalEdgeStyle;rounded=0;orthogonalLoop=1;jettySize=auto;html=1;entryX=0;entryY=0.5;entryDx=0;entryDy=0;" edge="1" parent="1" source="8wWw_ErhTWO8_n84LaZL-5" target="8wWw_ErhTWO8_n84LaZL-7">
          <mxGeometry relative="1" as="geometry" />
        </mxCell>
        <mxCell id="8wWw_ErhTWO8_n84LaZL-13" style="rounded=0;orthogonalLoop=1;jettySize=auto;html=1;exitX=0.5;exitY=0;exitDx=0;exitDy=0;entryX=0.25;entryY=1;entryDx=0;entryDy=0;" edge="1" parent="1" source="8wWw_ErhTWO8_n84LaZL-5" target="-ZXEPCig3IQjcJ_zND1S-3">
          <mxGeometry relative="1" as="geometry" />
        </mxCell>
        <mxCell id="8wWw_ErhTWO8_n84LaZL-5" value="Kafka Consumer" style="rounded=1;whiteSpace=wrap;html=1;" vertex="1" parent="1">
          <mxGeometry x="370" y="245" width="60" height="40" as="geometry" />
        </mxCell>
        <mxCell id="8wWw_ErhTWO8_n84LaZL-20" style="edgeStyle=orthogonalEdgeStyle;rounded=0;orthogonalLoop=1;jettySize=auto;html=1;exitX=1;exitY=0.5;exitDx=0;exitDy=0;entryX=0;entryY=0.5;entryDx=0;entryDy=0;" edge="1" parent="1" source="8wWw_ErhTWO8_n84LaZL-6" target="8wWw_ErhTWO8_n84LaZL-2">
          <mxGeometry relative="1" as="geometry" />
        </mxCell>
        <mxCell id="8wWw_ErhTWO8_n84LaZL-6" value="Kafka&amp;nbsp;&lt;div&gt;Producer&lt;/div&gt;" style="rounded=1;whiteSpace=wrap;html=1;" vertex="1" parent="1">
          <mxGeometry x="570" y="245" width="60" height="40" as="geometry" />
        </mxCell>
        <mxCell id="8wWw_ErhTWO8_n84LaZL-12" style="edgeStyle=orthogonalEdgeStyle;rounded=0;orthogonalLoop=1;jettySize=auto;html=1;entryX=0;entryY=0.5;entryDx=0;entryDy=0;" edge="1" parent="1" source="8wWw_ErhTWO8_n84LaZL-7" target="8wWw_ErhTWO8_n84LaZL-6">
          <mxGeometry relative="1" as="geometry" />
        </mxCell>
        <mxCell id="8wWw_ErhTWO8_n84LaZL-7" value="Processor" style="rounded=1;whiteSpace=wrap;html=1;" vertex="1" parent="1">
          <mxGeometry x="467.5" y="245" width="65" height="40" as="geometry" />
        </mxCell>
        <mxCell id="8wWw_ErhTWO8_n84LaZL-8" value="Application" style="text;html=1;align=center;verticalAlign=middle;whiteSpace=wrap;rounded=0;" vertex="1" parent="1">
          <mxGeometry x="470" y="200" width="60" height="30" as="geometry" />
        </mxCell>
        <mxCell id="8wWw_ErhTWO8_n84LaZL-15" value="Third party application" style="rounded=1;whiteSpace=wrap;html=1;" vertex="1" parent="1">
          <mxGeometry x="448.75" y="390" width="102.5" height="40" as="geometry" />
        </mxCell>
        <mxCell id="8wWw_ErhTWO8_n84LaZL-16" style="edgeStyle=orthogonalEdgeStyle;rounded=0;orthogonalLoop=1;jettySize=auto;html=1;exitX=0.5;exitY=1;exitDx=0;exitDy=0;entryX=0.503;entryY=-0.105;entryDx=0;entryDy=0;entryPerimeter=0;" edge="1" parent="1" source="8wWw_ErhTWO8_n84LaZL-7" target="8wWw_ErhTWO8_n84LaZL-15">
          <mxGeometry relative="1" as="geometry" />
        </mxCell>
        <mxCell id="8wWw_ErhTWO8_n84LaZL-17" style="edgeStyle=orthogonalEdgeStyle;rounded=0;orthogonalLoop=1;jettySize=auto;html=1;exitX=0;exitY=0.75;exitDx=0;exitDy=0;" edge="1" parent="1" source="8wWw_ErhTWO8_n84LaZL-5" target="8wWw_ErhTWO8_n84LaZL-5">
          <mxGeometry relative="1" as="geometry" />
        </mxCell>
        <mxCell id="8wWw_ErhTWO8_n84LaZL-18" style="edgeStyle=orthogonalEdgeStyle;rounded=0;orthogonalLoop=1;jettySize=auto;html=1;exitX=1;exitY=0.5;exitDx=0;exitDy=0;entryX=-0.036;entryY=0.399;entryDx=0;entryDy=0;entryPerimeter=0;" edge="1" parent="1" source="-ZXEPCig3IQjcJ_zND1S-9" target="8wWw_ErhTWO8_n84LaZL-5">
          <mxGeometry relative="1" as="geometry" />
        </mxCell>
        <mxCell id="8wWw_ErhTWO8_n84LaZL-19" style="edgeStyle=orthogonalEdgeStyle;rounded=0;orthogonalLoop=1;jettySize=auto;html=1;exitX=1;exitY=0.75;exitDx=0;exitDy=0;" edge="1" parent="1" source="8wWw_ErhTWO8_n84LaZL-6" target="8wWw_ErhTWO8_n84LaZL-6">
          <mxGeometry relative="1" as="geometry" />
        </mxCell>
        <mxCell id="8wWw_ErhTWO8_n84LaZL-21" value="1. consume" style="text;html=1;align=center;verticalAlign=middle;whiteSpace=wrap;rounded=0;" vertex="1" parent="1">
          <mxGeometry x="270" y="236" width="70" height="30" as="geometry" />
        </mxCell>
        <mxCell id="8wWw_ErhTWO8_n84LaZL-22" value="2. get schema" style="text;html=1;align=center;verticalAlign=middle;whiteSpace=wrap;rounded=0;" vertex="1" parent="1">
          <mxGeometry x="360" y="160" width="80" height="30" as="geometry" />
        </mxCell>
        <mxCell id="8wWw_ErhTWO8_n84LaZL-23" value="5. get schema id" style="text;html=1;align=center;verticalAlign=middle;whiteSpace=wrap;rounded=0;" vertex="1" parent="1">
          <mxGeometry x="560" y="160" width="100" height="30" as="geometry" />
        </mxCell>
        <mxCell id="8wWw_ErhTWO8_n84LaZL-24" value="3. deserialize" style="text;html=1;align=center;verticalAlign=middle;whiteSpace=wrap;rounded=0;" vertex="1" parent="1">
          <mxGeometry x="345" y="300" width="80" height="30" as="geometry" />
        </mxCell>
        <mxCell id="8wWw_ErhTWO8_n84LaZL-25" value="4. REST Call" style="text;html=1;align=center;verticalAlign=middle;whiteSpace=wrap;rounded=0;" vertex="1" parent="1">
          <mxGeometry x="500" y="350" width="80" height="30" as="geometry" />
        </mxCell>
        <mxCell id="8wWw_ErhTWO8_n84LaZL-26" value="6. serialize" style="text;html=1;align=center;verticalAlign=middle;whiteSpace=wrap;rounded=0;" vertex="1" parent="1">
          <mxGeometry x="587" y="300" width="80" height="30" as="geometry" />
        </mxCell>
        <mxCell id="8wWw_ErhTWO8_n84LaZL-28" value="7. produce" style="text;html=1;align=center;verticalAlign=middle;whiteSpace=wrap;rounded=0;" vertex="1" parent="1">
          <mxGeometry x="653" y="240" width="80" height="30" as="geometry" />
        </mxCell>
      </root>
    </mxGraphModel>
  </diagram>
</mxfile>
